<?xml version="1.0" encoding="utf-8"?>
<!DOCTYPE svg PUBLIC "-//W3C//DTD SVG 1.1//EN" "http://www.w3.org/Graphics/SVG/1.1/DTD/svg11.dtd">
<svg fill='#61B7CC' version="1.1" xmlns="http://www.w3.org/2000/svg" xmlns:xlink="http://www.w3.org/1999/xlink" x="0px" y="0px" viewBox="0 0 1000 1000" enable-background="new 0 0 1000 1000" xml:space="preserve">
<metadata> Svg Vector Icons : http://www.onlinewebfonts.com/icon </metadata>
<g><g transform="translate(0.000000,512.000000) scale(0.100000,-0.100000)"><path d="M6569.6,4484.1v-535.9h622.1h622.1v535.9V5020h-622.1h-622.1V4484.1z"/><path d="M6569.6,3102.1v-503.4l-128.2-67c-258.4-135.9-547.4-463.2-662.3-750.3c-114.8-287.1-109.1-130.2-109.1-3489.3V-4780h1512.1h1512.1v3106.5c0,3041.5,0,3110.4-38.3,3257.7c-101.4,400-379,759.9-729.3,947.5l-112.9,59.3v507.2v505.3h-622.1h-622.1V3102.1z M8445.4-1765.4v-1483.4H7201.2H5957.1v1483.4V-282h1244.1h1244.1V-1765.4z"/><path d="M1564.3,1165.1c-93.8-168.4-172.3-392.4-222-627.8c-57.4-281.4-45.9-761.8,26.8-1031.7C1566.2-1239,2058.1-1761.5,2718.5-1928l80.4-21.1v-1204v-1205.9h-93.8c-162.7,0-532.1-55.5-643.1-97.6c-254.6-95.7-40.2-197.2,516.8-245c698.6-61.2,1546.6,26.8,1592.5,164.6c23,65.1-306.3,149.3-658.4,172.3l-197.1,11.5v1202v1202l82.3,21.1c338.8,86.1,648.9,279.4,888.1,558.9c560.8,652.7,679.5,1659.5,287.1,2446.2l-99.5,201l-1420.2,5.7l-1420.2,3.8L1564.3,1165.1z M4289.9,954.5c40.2-47.9,134-329.2,166.5-501.5c45.9-250.7,28.7-683.3-36.4-913c-153.1-534-491.9-936-932.1-1110.2c-786.7-308.2-1638.4,268-1837.5,1246c-82.3,407.7-24.9,924.5,141.6,1244.1l32.5,61.3h1221.2C4064.1,981.3,4270.8,977.5,4289.9,954.5z"/><path d="M1688.7-2.5c0-72.7,86.1-390.5,151.2-557c86.1-224,216.3-432.6,365.6-589.5c149.3-157,281.4-243.1,482.3-315.8c120.6-42.1,172.3-49.8,369.4-49.8c354.1-1.9,580,84.2,803.9,304.3c243.1,241.2,432.6,675.7,484.3,1115.9l15.3,137.8h-748.4H2862l-1.9-68.9c-3.8-90-67-199.1-151.2-256.5c-97.6-67-258.4-67-356,0c-82.3,57.4-149.3,168.4-153.1,258.4l-3.8,67h-252.7h-254.6V-2.5z"/></g></g>
</svg>