<?xml version="1.0" standalone="no"?>
<!DOCTYPE svg PUBLIC "-//W3C//DTD SVG 20010904//EN"
 "http://www.w3.org/TR/2001/REC-SVG-20010904/DTD/svg10.dtd">
<svg version="1.0" xmlns="http://www.w3.org/2000/svg"
 width="1237.000000pt" height="1280.000000pt" viewBox="0 0 1237.000000 1280.000000"
 preserveAspectRatio="xMidYMid meet">
<metadata>
Created by potrace 1.15, written by Peter Selinger 2001-2017
</metadata>
<g transform="translate(0.000000,1280.000000) scale(0.100000,-0.100000)"
fill="#61B7CC" stroke="none">
<path d="M6649 11982 c-817 -450 -1998 -1098 -2624 -1442 -627 -344 -1152
-636 -1167 -648 l-28 -24 0 -581 c0 -320 -3 -741 -7 -935 l-6 -352 -238 -131
-237 -131 -408 -742 c-224 -407 -415 -753 -423 -768 -9 -15 -307 -295 -663
-622 l-646 -595 -6 -63 c-21 -208 -47 -723 -66 -1248 0 -19 -30 -281 -65 -582
-36 -301 -65 -548 -65 -550 0 -2 53 -30 118 -62 l117 -58 47 -97 c132 -270
361 -443 639 -482 46 -6 174 -13 284 -15 l200 -3 985 -503 c830 -424 986 -507
988 -525 2 -13 6 -23 10 -23 4 0 202 93 440 206 238 114 434 205 436 203 3 -2
0 -40 -6 -84 -14 -111 -4 -322 21 -420 78 -314 297 -561 581 -654 86 -28 363
-55 500 -48 138 8 241 35 375 101 140 69 245 147 371 278 256 266 412 621 431
980 8 143 -10 262 -63 433 -51 161 -95 260 -147 328 -21 26 -37 50 -37 53 0 3
73 40 162 83 l161 77 224 -92 225 -91 142 77 c78 42 349 189 601 325 389 209
762 411 1587 856 70 38 130 69 132 69 2 0 7 -14 11 -31 23 -104 171 -357 279
-476 96 -106 259 -205 391 -237 78 -19 273 -36 415 -36 128 0 231 19 339 61
681 270 1089 1210 784 1808 -24 47 -39 87 -34 90 5 3 151 82 324 176 l314 169
6 701 c4 385 7 1606 7 2714 l0 2014 -67 37 c-38 20 -943 529 -2013 1130 -2324
1305 -2136 1200 -2141 1199 -2 0 -673 -368 -1490 -817z"/>
</g>
</svg>
