<?xml version="1.0" encoding="UTF-8" standalone="no"?>
<svg fill='#61B7CC' xmlns:dc="http://purl.org/dc/elements/1.1/" xmlns:cc="http://creativecommons.org/ns#" xmlns:rdf="http://www.w3.org/1999/02/22-rdf-syntax-ns#" xmlns:svg="http://www.w3.org/2000/svg" xmlns="http://www.w3.org/2000/svg" xmlns:sodipodi="http://sodipodi.sourceforge.net/DTD/sodipodi-0.dtd" xmlns:inkscape="http://www.inkscape.org/namespaces/inkscape" version="1.1" x="0px" y="0px" viewBox="0 0 100 125" enable-background="new 0 0 100 100" xml:space="preserve" id="svg2" inkscape:version="0.91 r13725" sodipodi:docname="Q25374323_noun_154888_ccLuisPrado_to-drink.svg"><metadata id="metadata16"><rdf:RDF><cc:Work rdf:about=""><dc:format>image/svg+xml</dc:format><dc:type rdf:resource="http://purl.org/dc/dcmitype/StillImage"/><dc:title/></cc:Work></rdf:RDF></metadata><defs id="defs14"/><sodipodi:namedview pagecolor="#ffffff" bordercolor="#666666" borderopacity="1" objecttolerance="10" gridtolerance="10" guidetolerance="10" inkscape:pageopacity="0" inkscape:pageshadow="2" inkscape:window-width="1680" inkscape:window-height="988" id="namedview12" showgrid="false" inkscape:zoom="5.3400704" inkscape:cx="66.505246" inkscape:cy="58.142936" inkscape:window-x="-8" inkscape:window-y="-8" inkscape:window-maximized="1" inkscape:current-layer="svg2"/><path d="m 24.145,44.512 c -7.349,-4.353 -9.771,-13.83 -5.427,-21.164 4.351,-7.345 13.823,-9.774 21.173,-5.425 7.333,4.347 9.764,13.824 5.413,21.169 -4.345,7.337 -13.825,9.763 -21.159,5.42 z" id="path4" inkscape:connector-curvature="0"/><path d="m 69.12,17.649 -21.032,25.488 11.714,7.921 -5.286,11.85 c 0,0 -25.538,-12.289 -25.722,-12.359 C 24.957,48.492 18.601,47.973 13.775,51.298 0.526,60.886 -0.709,85.712 3.34,102.629 l 45.28,0 -7.541,-27.349 -13.46,-6.482 c -0.653,-0.315 -0.927,-1.098 -0.611,-1.752 0.315,-0.652 1.1,-0.927 1.752,-0.611 l 26.229,12.633 c 0.971,0.458 2.02,0.692 3.073,0.692 0.835,0 1.67,-0.145 2.469,-0.438 1.822,-0.666 3.296,-2.043 4.087,-3.815 L 71.883,59.226 82.692,66.534 98.667,47.177 69.12,17.649 Z m 8.012,29.805 1.167,-2.614 c 1.615,-3.62 -0.011,-7.865 -3.631,-9.48 -3.621,-1.615 -7.865,0.01 -9.48,3.631 L 61.5,47.254 54.124,42.266 69.412,23.74 l 23.715,23.7 -0.011,0.013 -15.984,0 z" id="path6" inkscape:connector-curvature="0"/></svg>