<svg fill='#61B7CC' height="512pt" viewBox="0 0 512 512" width="512pt" xmlns="http://www.w3.org/2000/svg"><path d="m175.71875 391.050781-37.289062 24.269531h-90.089844c-26.660156 0-48.339844 21.691407-48.339844 48.339844 0 26.648438 21.679688 48.339844 48.339844 48.339844h125.371094l82.71875-57.960938c10.070312 4.769532 21.308593 7.449219 33.160156 7.449219h222.410156v-117.199219h-278.390625c-12.738281 21.972657-33.320313 38.839844-57.890625 46.761719zm0 0"/><path d="m481.101562 128.828125c16.808594-13.21875 27.636719-33.707031 27.636719-56.699219 0-39.769531-32.359375-72.128906-72.128906-72.128906s-72.128906 32.359375-72.128906 72.128906c0 22.992188 10.828125 43.480469 27.640625 56.699219-8.292969 6.082031-15.28125 13.8125-20.511719 22.703125l-121.808594 162.757812h84.210938l77.398437-108.230468 24.398438 17.460937-64.917969 90.769531h141.109375v-124.648437c0-24.941406-12.179688-47.082031-30.898438-60.8125zm0 0"/><path d="m144 366.03125c40.539062 0 73.53125-32.980469 73.53125-73.53125 0-40.539062-32.992188-73.53125-73.53125-73.53125-40.550781 0-73.53125 32.992188-73.53125 73.53125 0 40.550781 32.980469 73.53125 73.53125 73.53125zm0 0"/></svg>